<svg width="108" height="155" viewBox="0 0 108 155" fill="none" xmlns="http://www.w3.org/2000/svg">
<g clip-path="url(#clip0_27_147)">
<path d="M62.9039 45.9381C80.4789 48.591 101.668 38.7588 125.856 17.0108C112.146 5.98693 95.0846 -0.015008 77.5003 2.81831e-05C77.0176 2.81831e-05 76.5521 0.063841 76.068 0.071728C69.375 14.6095 64.7928 30.0307 62.4606 45.8671C62.6096 45.8922 62.7571 45.9173 62.9039 45.9381Z" fill="black" fill-opacity="0.06"/>
<path d="M52.2172 52.751C38.9907 47.1235 27.9307 37.3741 20.6803 24.9515C11.0379 35.3159 4.426 48.1339 1.56699 62.0053C17.2948 69.2102 34.2337 73.3959 51.5038 74.3448C51.2989 67.1391 51.5371 59.9275 52.2172 52.751Z" fill="black" fill-opacity="0.06"/>
<path d="M53.4024 43.1633C55.6593 28.671 59.7119 14.5168 65.4664 1.0282C51.4569 3.20269 38.3172 9.20142 27.4911 18.3652C33.4654 29.0328 42.4889 37.6686 53.4024 43.1633Z" fill="black" fill-opacity="0.06"/>
<path d="M61.5153 55.1594L61.4036 55.1422C60.8496 61.6464 60.6743 68.1774 60.8786 74.7019C92.1069 74.2392 123.013 68.3091 152.2 57.1799C148.734 44.4028 142.054 32.7288 132.798 23.2731C106.125 47.4331 82.1548 58.259 61.5153 55.1594Z" fill="black" fill-opacity="0.06"/>
<path d="M67.1208 106.47C66.3638 106.587 65.6312 106.816 64.882 106.972C68.4793 123.528 73.8913 139.635 81.0197 155.001C101.086 154.121 120.019 145.442 133.795 130.808C108.373 111.769 85.9763 103.545 67.1208 106.47Z" fill="black" fill-opacity="0.06"/>
<path d="M61.4207 84.0358C61.8075 88.5988 62.4291 93.1969 63.1747 97.8115C64.0198 97.6416 64.8426 97.387 65.6978 97.2551C87.2074 93.9268 112.077 102.807 139.782 123.623C145.867 115.529 150.269 106.296 152.729 96.4695C155.189 86.643 155.657 76.4226 154.105 66.412C124.469 77.6362 93.1041 83.6001 61.4207 84.0358Z" fill="black" fill-opacity="0.06"/>
<path d="M26.5415 135.949C38.9033 146.813 54.4125 153.432 70.8012 154.839C64.349 140.333 59.3604 125.217 55.9098 109.718C43.7951 115.438 33.5947 124.549 26.5415 135.949Z" fill="black" fill-opacity="0.06"/>
<path d="M54.1201 100.438C53.1776 94.8352 52.4456 89.2613 52.0073 83.7275C34.184 82.8323 16.6679 78.7276 0.299365 71.6102C0.1504 73.5891 3.04884e-06 75.5716 3.04884e-06 77.5893C-0.0053556 96.6776 7.05324 115.091 19.813 129.275C28.0856 116.422 40.0436 106.37 54.1201 100.438Z" fill="black" fill-opacity="0.06"/>
</g>
<defs>
<clipPath id="clip0_27_147">
<rect width="155" height="155" fill="white"/>
</clipPath>
</defs>
</svg>
